<?xml version="1.0" standalone="no"?>
<svg xmlns="http://www.w3.org/2000/svg" version="1.1" width="1215" height="1215">
	<!-- Created with https://api.qrserver.com (QR Code API, see goQR.me/api for information) -->
	<title>QR Code</title>
	<desc>https://visionlink-wearable.netlify.app</desc>
	<rect style="fill:rgb(255, 255, 255);fill-opacity:1" x="0" y="0" width="1215" height="1215" />
	<g id="elements">
		<path style="fill:rgb(0, 0, 0)" d="M 108,108 l 27,0 0,27 -27,0 z M 135,108 l 27,0 0,27 -27,0 z M 162,108 l 27,0 0,27 -27,0 z M 189,108 l 27,0 0,27 -27,0 z M 216,108 l 27,0 0,27 -27,0 z M 243,108 l 27,0 0,27 -27,0 z M 270,108 l 27,0 0,27 -27,0 z M 324,108 l 27,0 0,27 -27,0 z M 378,108 l 27,0 0,27 -27,0 z M 405,108 l 27,0 0,27 -27,0 z M 513,108 l 27,0 0,27 -27,0 z M 567,108 l 27,0 0,27 -27,0 z M 621,108 l 27,0 0,27 -27,0 z M 729,108 l 27,0 0,27 -27,0 z M 783,108 l 27,0 0,27 -27,0 z M 918,108 l 27,0 0,27 -27,0 z M 945,108 l 27,0 0,27 -27,0 z M 972,108 l 27,0 0,27 -27,0 z M 999,108 l 27,0 0,27 -27,0 z M 1026,108 l 27,0 0,27 -27,0 z M 1053,108 l 27,0 0,27 -27,0 z M 1080,108 l 27,0 0,27 -27,0 z M 108,135 l 27,0 0,27 -27,0 z M 270,135 l 27,0 0,27 -27,0 z M 324,135 l 27,0 0,27 -27,0 z M 432,135 l 27,0 0,27 -27,0 z M 486,135 l 27,0 0,27 -27,0 z M 513,135 l 27,0 0,27 -27,0 z M 567,135 l 27,0 0,27 -27,0 z M 594,135 l 27,0 0,27 -27,0 z M 648,135 l 27,0 0,27 -27,0 z M 702,135 l 27,0 0,27 -27,0 z M 756,135 l 27,0 0,27 -27,0 z M 783,135 l 27,0 0,27 -27,0 z M 810,135 l 27,0 0,27 -27,0 z M 837,135 l 27,0 0,27 -27,0 z M 864,135 l 27,0 0,27 -27,0 z M 918,135 l 27,0 0,27 -27,0 z M 1080,135 l 27,0 0,27 -27,0 z M 108,162 l 27,0 0,27 -27,0 z M 162,162 l 27,0 0,27 -27,0 z M 189,162 l 27,0 0,27 -27,0 z M 216,162 l 27,0 0,27 -27,0 z M 270,162 l 27,0 0,27 -27,0 z M 324,162 l 27,0 0,27 -27,0 z M 351,162 l 27,0 0,27 -27,0 z M 405,162 l 27,0 0,27 -27,0 z M 432,162 l 27,0 0,27 -27,0 z M 459,162 l 27,0 0,27 -27,0 z M 486,162 l 27,0 0,27 -27,0 z M 540,162 l 27,0 0,27 -27,0 z M 567,162 l 27,0 0,27 -27,0 z M 621,162 l 27,0 0,27 -27,0 z M 648,162 l 27,0 0,27 -27,0 z M 675,162 l 27,0 0,27 -27,0 z M 756,162 l 27,0 0,27 -27,0 z M 918,162 l 27,0 0,27 -27,0 z M 972,162 l 27,0 0,27 -27,0 z M 999,162 l 27,0 0,27 -27,0 z M 1026,162 l 27,0 0,27 -27,0 z M 1080,162 l 27,0 0,27 -27,0 z M 108,189 l 27,0 0,27 -27,0 z M 162,189 l 27,0 0,27 -27,0 z M 189,189 l 27,0 0,27 -27,0 z M 216,189 l 27,0 0,27 -27,0 z M 270,189 l 27,0 0,27 -27,0 z M 378,189 l 27,0 0,27 -27,0 z M 405,189 l 27,0 0,27 -27,0 z M 432,189 l 27,0 0,27 -27,0 z M 459,189 l 27,0 0,27 -27,0 z M 513,189 l 27,0 0,27 -27,0 z M 567,189 l 27,0 0,27 -27,0 z M 594,189 l 27,0 0,27 -27,0 z M 648,189 l 27,0 0,27 -27,0 z M 783,189 l 27,0 0,27 -27,0 z M 810,189 l 27,0 0,27 -27,0 z M 918,189 l 27,0 0,27 -27,0 z M 972,189 l 27,0 0,27 -27,0 z M 999,189 l 27,0 0,27 -27,0 z M 1026,189 l 27,0 0,27 -27,0 z M 1080,189 l 27,0 0,27 -27,0 z M 108,216 l 27,0 0,27 -27,0 z M 162,216 l 27,0 0,27 -27,0 z M 189,216 l 27,0 0,27 -27,0 z M 216,216 l 27,0 0,27 -27,0 z M 270,216 l 27,0 0,27 -27,0 z M 351,216 l 27,0 0,27 -27,0 z M 378,216 l 27,0 0,27 -27,0 z M 405,216 l 27,0 0,27 -27,0 z M 486,216 l 27,0 0,27 -27,0 z M 513,216 l 27,0 0,27 -27,0 z M 567,216 l 27,0 0,27 -27,0 z M 594,216 l 27,0 0,27 -27,0 z M 648,216 l 27,0 0,27 -27,0 z M 675,216 l 27,0 0,27 -27,0 z M 702,216 l 27,0 0,27 -27,0 z M 729,216 l 27,0 0,27 -27,0 z M 756,216 l 27,0 0,27 -27,0 z M 918,216 l 27,0 0,27 -27,0 z M 972,216 l 27,0 0,27 -27,0 z M 999,216 l 27,0 0,27 -27,0 z M 1026,216 l 27,0 0,27 -27,0 z M 1080,216 l 27,0 0,27 -27,0 z M 108,243 l 27,0 0,27 -27,0 z M 270,243 l 27,0 0,27 -27,0 z M 324,243 l 27,0 0,27 -27,0 z M 351,243 l 27,0 0,27 -27,0 z M 378,243 l 27,0 0,27 -27,0 z M 405,243 l 27,0 0,27 -27,0 z M 432,243 l 27,0 0,27 -27,0 z M 459,243 l 27,0 0,27 -27,0 z M 540,243 l 27,0 0,27 -27,0 z M 567,243 l 27,0 0,27 -27,0 z M 594,243 l 27,0 0,27 -27,0 z M 621,243 l 27,0 0,27 -27,0 z M 675,243 l 27,0 0,27 -27,0 z M 702,243 l 27,0 0,27 -27,0 z M 729,243 l 27,0 0,27 -27,0 z M 837,243 l 27,0 0,27 -27,0 z M 864,243 l 27,0 0,27 -27,0 z M 918,243 l 27,0 0,27 -27,0 z M 1080,243 l 27,0 0,27 -27,0 z M 108,270 l 27,0 0,27 -27,0 z M 135,270 l 27,0 0,27 -27,0 z M 162,270 l 27,0 0,27 -27,0 z M 189,270 l 27,0 0,27 -27,0 z M 216,270 l 27,0 0,27 -27,0 z M 243,270 l 27,0 0,27 -27,0 z M 270,270 l 27,0 0,27 -27,0 z M 324,270 l 27,0 0,27 -27,0 z M 378,270 l 27,0 0,27 -27,0 z M 432,270 l 27,0 0,27 -27,0 z M 486,270 l 27,0 0,27 -27,0 z M 540,270 l 27,0 0,27 -27,0 z M 594,270 l 27,0 0,27 -27,0 z M 648,270 l 27,0 0,27 -27,0 z M 702,270 l 27,0 0,27 -27,0 z M 756,270 l 27,0 0,27 -27,0 z M 810,270 l 27,0 0,27 -27,0 z M 864,270 l 27,0 0,27 -27,0 z M 918,270 l 27,0 0,27 -27,0 z M 945,270 l 27,0 0,27 -27,0 z M 972,270 l 27,0 0,27 -27,0 z M 999,270 l 27,0 0,27 -27,0 z M 1026,270 l 27,0 0,27 -27,0 z M 1053,270 l 27,0 0,27 -27,0 z M 1080,270 l 27,0 0,27 -27,0 z M 324,297 l 27,0 0,27 -27,0 z M 459,297 l 27,0 0,27 -27,0 z M 486,297 l 27,0 0,27 -27,0 z M 540,297 l 27,0 0,27 -27,0 z M 567,297 l 27,0 0,27 -27,0 z M 702,297 l 27,0 0,27 -27,0 z M 810,297 l 27,0 0,27 -27,0 z M 864,297 l 27,0 0,27 -27,0 z M 162,324 l 27,0 0,27 -27,0 z M 189,324 l 27,0 0,27 -27,0 z M 216,324 l 27,0 0,27 -27,0 z M 270,324 l 27,0 0,27 -27,0 z M 324,324 l 27,0 0,27 -27,0 z M 351,324 l 27,0 0,27 -27,0 z M 432,324 l 27,0 0,27 -27,0 z M 486,324 l 27,0 0,27 -27,0 z M 594,324 l 27,0 0,27 -27,0 z M 702,324 l 27,0 0,27 -27,0 z M 756,324 l 27,0 0,27 -27,0 z M 891,324 l 27,0 0,27 -27,0 z M 918,324 l 27,0 0,27 -27,0 z M 945,324 l 27,0 0,27 -27,0 z M 1026,324 l 27,0 0,27 -27,0 z M 1053,324 l 27,0 0,27 -27,0 z M 1080,324 l 27,0 0,27 -27,0 z M 108,351 l 27,0 0,27 -27,0 z M 135,351 l 27,0 0,27 -27,0 z M 162,351 l 27,0 0,27 -27,0 z M 405,351 l 27,0 0,27 -27,0 z M 459,351 l 27,0 0,27 -27,0 z M 486,351 l 27,0 0,27 -27,0 z M 567,351 l 27,0 0,27 -27,0 z M 594,351 l 27,0 0,27 -27,0 z M 648,351 l 27,0 0,27 -27,0 z M 729,351 l 27,0 0,27 -27,0 z M 783,351 l 27,0 0,27 -27,0 z M 810,351 l 27,0 0,27 -27,0 z M 837,351 l 27,0 0,27 -27,0 z M 864,351 l 27,0 0,27 -27,0 z M 891,351 l 27,0 0,27 -27,0 z M 945,351 l 27,0 0,27 -27,0 z M 1053,351 l 27,0 0,27 -27,0 z M 108,378 l 27,0 0,27 -27,0 z M 162,378 l 27,0 0,27 -27,0 z M 189,378 l 27,0 0,27 -27,0 z M 216,378 l 27,0 0,27 -27,0 z M 270,378 l 27,0 0,27 -27,0 z M 297,378 l 27,0 0,27 -27,0 z M 378,378 l 27,0 0,27 -27,0 z M 405,378 l 27,0 0,27 -27,0 z M 432,378 l 27,0 0,27 -27,0 z M 459,378 l 27,0 0,27 -27,0 z M 486,378 l 27,0 0,27 -27,0 z M 540,378 l 27,0 0,27 -27,0 z M 567,378 l 27,0 0,27 -27,0 z M 675,378 l 27,0 0,27 -27,0 z M 756,378 l 27,0 0,27 -27,0 z M 783,378 l 27,0 0,27 -27,0 z M 810,378 l 27,0 0,27 -27,0 z M 918,378 l 27,0 0,27 -27,0 z M 945,378 l 27,0 0,27 -27,0 z M 999,378 l 27,0 0,27 -27,0 z M 1026,378 l 27,0 0,27 -27,0 z M 1053,378 l 27,0 0,27 -27,0 z M 1080,378 l 27,0 0,27 -27,0 z M 108,405 l 27,0 0,27 -27,0 z M 135,405 l 27,0 0,27 -27,0 z M 162,405 l 27,0 0,27 -27,0 z M 189,405 l 27,0 0,27 -27,0 z M 216,405 l 27,0 0,27 -27,0 z M 243,405 l 27,0 0,27 -27,0 z M 378,405 l 27,0 0,27 -27,0 z M 405,405 l 27,0 0,27 -27,0 z M 486,405 l 27,0 0,27 -27,0 z M 540,405 l 27,0 0,27 -27,0 z M 567,405 l 27,0 0,27 -27,0 z M 594,405 l 27,0 0,27 -27,0 z M 648,405 l 27,0 0,27 -27,0 z M 729,405 l 27,0 0,27 -27,0 z M 810,405 l 27,0 0,27 -27,0 z M 864,405 l 27,0 0,27 -27,0 z M 918,405 l 27,0 0,27 -27,0 z M 1053,405 l 27,0 0,27 -27,0 z M 1080,405 l 27,0 0,27 -27,0 z M 108,432 l 27,0 0,27 -27,0 z M 162,432 l 27,0 0,27 -27,0 z M 216,432 l 27,0 0,27 -27,0 z M 243,432 l 27,0 0,27 -27,0 z M 270,432 l 27,0 0,27 -27,0 z M 351,432 l 27,0 0,27 -27,0 z M 378,432 l 27,0 0,27 -27,0 z M 405,432 l 27,0 0,27 -27,0 z M 567,432 l 27,0 0,27 -27,0 z M 621,432 l 27,0 0,27 -27,0 z M 675,432 l 27,0 0,27 -27,0 z M 729,432 l 27,0 0,27 -27,0 z M 756,432 l 27,0 0,27 -27,0 z M 783,432 l 27,0 0,27 -27,0 z M 810,432 l 27,0 0,27 -27,0 z M 891,432 l 27,0 0,27 -27,0 z M 918,432 l 27,0 0,27 -27,0 z M 972,432 l 27,0 0,27 -27,0 z M 1026,432 l 27,0 0,27 -27,0 z M 1080,432 l 27,0 0,27 -27,0 z M 108,459 l 27,0 0,27 -27,0 z M 297,459 l 27,0 0,27 -27,0 z M 324,459 l 27,0 0,27 -27,0 z M 405,459 l 27,0 0,27 -27,0 z M 432,459 l 27,0 0,27 -27,0 z M 459,459 l 27,0 0,27 -27,0 z M 567,459 l 27,0 0,27 -27,0 z M 594,459 l 27,0 0,27 -27,0 z M 621,459 l 27,0 0,27 -27,0 z M 729,459 l 27,0 0,27 -27,0 z M 756,459 l 27,0 0,27 -27,0 z M 783,459 l 27,0 0,27 -27,0 z M 810,459 l 27,0 0,27 -27,0 z M 864,459 l 27,0 0,27 -27,0 z M 891,459 l 27,0 0,27 -27,0 z M 945,459 l 27,0 0,27 -27,0 z M 999,459 l 27,0 0,27 -27,0 z M 1026,459 l 27,0 0,27 -27,0 z M 108,486 l 27,0 0,27 -27,0 z M 135,486 l 27,0 0,27 -27,0 z M 189,486 l 27,0 0,27 -27,0 z M 216,486 l 27,0 0,27 -27,0 z M 270,486 l 27,0 0,27 -27,0 z M 432,486 l 27,0 0,27 -27,0 z M 486,486 l 27,0 0,27 -27,0 z M 513,486 l 27,0 0,27 -27,0 z M 567,486 l 27,0 0,27 -27,0 z M 594,486 l 27,0 0,27 -27,0 z M 675,486 l 27,0 0,27 -27,0 z M 702,486 l 27,0 0,27 -27,0 z M 729,486 l 27,0 0,27 -27,0 z M 756,486 l 27,0 0,27 -27,0 z M 810,486 l 27,0 0,27 -27,0 z M 837,486 l 27,0 0,27 -27,0 z M 891,486 l 27,0 0,27 -27,0 z M 972,486 l 27,0 0,27 -27,0 z M 999,486 l 27,0 0,27 -27,0 z M 1053,486 l 27,0 0,27 -27,0 z M 1080,486 l 27,0 0,27 -27,0 z M 216,513 l 27,0 0,27 -27,0 z M 243,513 l 27,0 0,27 -27,0 z M 324,513 l 27,0 0,27 -27,0 z M 351,513 l 27,0 0,27 -27,0 z M 378,513 l 27,0 0,27 -27,0 z M 432,513 l 27,0 0,27 -27,0 z M 459,513 l 27,0 0,27 -27,0 z M 486,513 l 27,0 0,27 -27,0 z M 540,513 l 27,0 0,27 -27,0 z M 567,513 l 27,0 0,27 -27,0 z M 621,513 l 27,0 0,27 -27,0 z M 648,513 l 27,0 0,27 -27,0 z M 675,513 l 27,0 0,27 -27,0 z M 729,513 l 27,0 0,27 -27,0 z M 810,513 l 27,0 0,27 -27,0 z M 864,513 l 27,0 0,27 -27,0 z M 918,513 l 27,0 0,27 -27,0 z M 1053,513 l 27,0 0,27 -27,0 z M 108,540 l 27,0 0,27 -27,0 z M 135,540 l 27,0 0,27 -27,0 z M 216,540 l 27,0 0,27 -27,0 z M 243,540 l 27,0 0,27 -27,0 z M 270,540 l 27,0 0,27 -27,0 z M 297,540 l 27,0 0,27 -27,0 z M 324,540 l 27,0 0,27 -27,0 z M 378,540 l 27,0 0,27 -27,0 z M 405,540 l 27,0 0,27 -27,0 z M 486,540 l 27,0 0,27 -27,0 z M 513,540 l 27,0 0,27 -27,0 z M 540,540 l 27,0 0,27 -27,0 z M 594,540 l 27,0 0,27 -27,0 z M 621,540 l 27,0 0,27 -27,0 z M 729,540 l 27,0 0,27 -27,0 z M 783,540 l 27,0 0,27 -27,0 z M 810,540 l 27,0 0,27 -27,0 z M 891,540 l 27,0 0,27 -27,0 z M 918,540 l 27,0 0,27 -27,0 z M 972,540 l 27,0 0,27 -27,0 z M 1026,540 l 27,0 0,27 -27,0 z M 1080,540 l 27,0 0,27 -27,0 z M 108,567 l 27,0 0,27 -27,0 z M 135,567 l 27,0 0,27 -27,0 z M 216,567 l 27,0 0,27 -27,0 z M 324,567 l 27,0 0,27 -27,0 z M 378,567 l 27,0 0,27 -27,0 z M 405,567 l 27,0 0,27 -27,0 z M 459,567 l 27,0 0,27 -27,0 z M 567,567 l 27,0 0,27 -27,0 z M 648,567 l 27,0 0,27 -27,0 z M 810,567 l 27,0 0,27 -27,0 z M 864,567 l 27,0 0,27 -27,0 z M 945,567 l 27,0 0,27 -27,0 z M 999,567 l 27,0 0,27 -27,0 z M 1026,567 l 27,0 0,27 -27,0 z M 189,594 l 27,0 0,27 -27,0 z M 270,594 l 27,0 0,27 -27,0 z M 297,594 l 27,0 0,27 -27,0 z M 324,594 l 27,0 0,27 -27,0 z M 351,594 l 27,0 0,27 -27,0 z M 378,594 l 27,0 0,27 -27,0 z M 486,594 l 27,0 0,27 -27,0 z M 567,594 l 27,0 0,27 -27,0 z M 594,594 l 27,0 0,27 -27,0 z M 621,594 l 27,0 0,27 -27,0 z M 675,594 l 27,0 0,27 -27,0 z M 702,594 l 27,0 0,27 -27,0 z M 729,594 l 27,0 0,27 -27,0 z M 810,594 l 27,0 0,27 -27,0 z M 837,594 l 27,0 0,27 -27,0 z M 891,594 l 27,0 0,27 -27,0 z M 972,594 l 27,0 0,27 -27,0 z M 1053,594 l 27,0 0,27 -27,0 z M 1080,594 l 27,0 0,27 -27,0 z M 216,621 l 27,0 0,27 -27,0 z M 243,621 l 27,0 0,27 -27,0 z M 297,621 l 27,0 0,27 -27,0 z M 324,621 l 27,0 0,27 -27,0 z M 405,621 l 27,0 0,27 -27,0 z M 459,621 l 27,0 0,27 -27,0 z M 486,621 l 27,0 0,27 -27,0 z M 513,621 l 27,0 0,27 -27,0 z M 594,621 l 27,0 0,27 -27,0 z M 621,621 l 27,0 0,27 -27,0 z M 675,621 l 27,0 0,27 -27,0 z M 756,621 l 27,0 0,27 -27,0 z M 810,621 l 27,0 0,27 -27,0 z M 864,621 l 27,0 0,27 -27,0 z M 918,621 l 27,0 0,27 -27,0 z M 945,621 l 27,0 0,27 -27,0 z M 972,621 l 27,0 0,27 -27,0 z M 1053,621 l 27,0 0,27 -27,0 z M 108,648 l 27,0 0,27 -27,0 z M 162,648 l 27,0 0,27 -27,0 z M 189,648 l 27,0 0,27 -27,0 z M 216,648 l 27,0 0,27 -27,0 z M 270,648 l 27,0 0,27 -27,0 z M 297,648 l 27,0 0,27 -27,0 z M 351,648 l 27,0 0,27 -27,0 z M 378,648 l 27,0 0,27 -27,0 z M 405,648 l 27,0 0,27 -27,0 z M 486,648 l 27,0 0,27 -27,0 z M 567,648 l 27,0 0,27 -27,0 z M 621,648 l 27,0 0,27 -27,0 z M 729,648 l 27,0 0,27 -27,0 z M 756,648 l 27,0 0,27 -27,0 z M 783,648 l 27,0 0,27 -27,0 z M 810,648 l 27,0 0,27 -27,0 z M 891,648 l 27,0 0,27 -27,0 z M 918,648 l 27,0 0,27 -27,0 z M 945,648 l 27,0 0,27 -27,0 z M 972,648 l 27,0 0,27 -27,0 z M 999,648 l 27,0 0,27 -27,0 z M 1026,648 l 27,0 0,27 -27,0 z M 1053,648 l 27,0 0,27 -27,0 z M 1080,648 l 27,0 0,27 -27,0 z M 135,675 l 27,0 0,27 -27,0 z M 297,675 l 27,0 0,27 -27,0 z M 351,675 l 27,0 0,27 -27,0 z M 486,675 l 27,0 0,27 -27,0 z M 540,675 l 27,0 0,27 -27,0 z M 621,675 l 27,0 0,27 -27,0 z M 648,675 l 27,0 0,27 -27,0 z M 675,675 l 27,0 0,27 -27,0 z M 783,675 l 27,0 0,27 -27,0 z M 810,675 l 27,0 0,27 -27,0 z M 945,675 l 27,0 0,27 -27,0 z M 999,675 l 27,0 0,27 -27,0 z M 108,702 l 27,0 0,27 -27,0 z M 189,702 l 27,0 0,27 -27,0 z M 216,702 l 27,0 0,27 -27,0 z M 270,702 l 27,0 0,27 -27,0 z M 297,702 l 27,0 0,27 -27,0 z M 324,702 l 27,0 0,27 -27,0 z M 378,702 l 27,0 0,27 -27,0 z M 432,702 l 27,0 0,27 -27,0 z M 459,702 l 27,0 0,27 -27,0 z M 486,702 l 27,0 0,27 -27,0 z M 513,702 l 27,0 0,27 -27,0 z M 540,702 l 27,0 0,27 -27,0 z M 567,702 l 27,0 0,27 -27,0 z M 594,702 l 27,0 0,27 -27,0 z M 621,702 l 27,0 0,27 -27,0 z M 756,702 l 27,0 0,27 -27,0 z M 783,702 l 27,0 0,27 -27,0 z M 810,702 l 27,0 0,27 -27,0 z M 837,702 l 27,0 0,27 -27,0 z M 918,702 l 27,0 0,27 -27,0 z M 999,702 l 27,0 0,27 -27,0 z M 1026,702 l 27,0 0,27 -27,0 z M 1053,702 l 27,0 0,27 -27,0 z M 1080,702 l 27,0 0,27 -27,0 z M 135,729 l 27,0 0,27 -27,0 z M 216,729 l 27,0 0,27 -27,0 z M 297,729 l 27,0 0,27 -27,0 z M 324,729 l 27,0 0,27 -27,0 z M 351,729 l 27,0 0,27 -27,0 z M 378,729 l 27,0 0,27 -27,0 z M 405,729 l 27,0 0,27 -27,0 z M 432,729 l 27,0 0,27 -27,0 z M 459,729 l 27,0 0,27 -27,0 z M 513,729 l 27,0 0,27 -27,0 z M 594,729 l 27,0 0,27 -27,0 z M 621,729 l 27,0 0,27 -27,0 z M 648,729 l 27,0 0,27 -27,0 z M 783,729 l 27,0 0,27 -27,0 z M 918,729 l 27,0 0,27 -27,0 z M 945,729 l 27,0 0,27 -27,0 z M 1053,729 l 27,0 0,27 -27,0 z M 1080,729 l 27,0 0,27 -27,0 z M 108,756 l 27,0 0,27 -27,0 z M 135,756 l 27,0 0,27 -27,0 z M 162,756 l 27,0 0,27 -27,0 z M 189,756 l 27,0 0,27 -27,0 z M 270,756 l 27,0 0,27 -27,0 z M 324,756 l 27,0 0,27 -27,0 z M 351,756 l 27,0 0,27 -27,0 z M 432,756 l 27,0 0,27 -27,0 z M 459,756 l 27,0 0,27 -27,0 z M 567,756 l 27,0 0,27 -27,0 z M 594,756 l 27,0 0,27 -27,0 z M 756,756 l 27,0 0,27 -27,0 z M 810,756 l 27,0 0,27 -27,0 z M 891,756 l 27,0 0,27 -27,0 z M 918,756 l 27,0 0,27 -27,0 z M 972,756 l 27,0 0,27 -27,0 z M 999,756 l 27,0 0,27 -27,0 z M 1026,756 l 27,0 0,27 -27,0 z M 108,783 l 27,0 0,27 -27,0 z M 162,783 l 27,0 0,27 -27,0 z M 189,783 l 27,0 0,27 -27,0 z M 351,783 l 27,0 0,27 -27,0 z M 378,783 l 27,0 0,27 -27,0 z M 405,783 l 27,0 0,27 -27,0 z M 432,783 l 27,0 0,27 -27,0 z M 459,783 l 27,0 0,27 -27,0 z M 513,783 l 27,0 0,27 -27,0 z M 567,783 l 27,0 0,27 -27,0 z M 621,783 l 27,0 0,27 -27,0 z M 648,783 l 27,0 0,27 -27,0 z M 702,783 l 27,0 0,27 -27,0 z M 837,783 l 27,0 0,27 -27,0 z M 891,783 l 27,0 0,27 -27,0 z M 945,783 l 27,0 0,27 -27,0 z M 999,783 l 27,0 0,27 -27,0 z M 1026,783 l 27,0 0,27 -27,0 z M 108,810 l 27,0 0,27 -27,0 z M 162,810 l 27,0 0,27 -27,0 z M 216,810 l 27,0 0,27 -27,0 z M 243,810 l 27,0 0,27 -27,0 z M 270,810 l 27,0 0,27 -27,0 z M 297,810 l 27,0 0,27 -27,0 z M 324,810 l 27,0 0,27 -27,0 z M 405,810 l 27,0 0,27 -27,0 z M 432,810 l 27,0 0,27 -27,0 z M 459,810 l 27,0 0,27 -27,0 z M 513,810 l 27,0 0,27 -27,0 z M 540,810 l 27,0 0,27 -27,0 z M 567,810 l 27,0 0,27 -27,0 z M 621,810 l 27,0 0,27 -27,0 z M 675,810 l 27,0 0,27 -27,0 z M 702,810 l 27,0 0,27 -27,0 z M 729,810 l 27,0 0,27 -27,0 z M 756,810 l 27,0 0,27 -27,0 z M 783,810 l 27,0 0,27 -27,0 z M 810,810 l 27,0 0,27 -27,0 z M 837,810 l 27,0 0,27 -27,0 z M 918,810 l 27,0 0,27 -27,0 z M 972,810 l 27,0 0,27 -27,0 z M 1053,810 l 27,0 0,27 -27,0 z M 1080,810 l 27,0 0,27 -27,0 z M 108,837 l 27,0 0,27 -27,0 z M 189,837 l 27,0 0,27 -27,0 z M 216,837 l 27,0 0,27 -27,0 z M 297,837 l 27,0 0,27 -27,0 z M 432,837 l 27,0 0,27 -27,0 z M 486,837 l 27,0 0,27 -27,0 z M 513,837 l 27,0 0,27 -27,0 z M 594,837 l 27,0 0,27 -27,0 z M 702,837 l 27,0 0,27 -27,0 z M 729,837 l 27,0 0,27 -27,0 z M 837,837 l 27,0 0,27 -27,0 z M 891,837 l 27,0 0,27 -27,0 z M 945,837 l 27,0 0,27 -27,0 z M 972,837 l 27,0 0,27 -27,0 z M 999,837 l 27,0 0,27 -27,0 z M 1053,837 l 27,0 0,27 -27,0 z M 1080,837 l 27,0 0,27 -27,0 z M 108,864 l 27,0 0,27 -27,0 z M 162,864 l 27,0 0,27 -27,0 z M 189,864 l 27,0 0,27 -27,0 z M 216,864 l 27,0 0,27 -27,0 z M 243,864 l 27,0 0,27 -27,0 z M 270,864 l 27,0 0,27 -27,0 z M 297,864 l 27,0 0,27 -27,0 z M 378,864 l 27,0 0,27 -27,0 z M 405,864 l 27,0 0,27 -27,0 z M 432,864 l 27,0 0,27 -27,0 z M 459,864 l 27,0 0,27 -27,0 z M 513,864 l 27,0 0,27 -27,0 z M 540,864 l 27,0 0,27 -27,0 z M 594,864 l 27,0 0,27 -27,0 z M 702,864 l 27,0 0,27 -27,0 z M 729,864 l 27,0 0,27 -27,0 z M 756,864 l 27,0 0,27 -27,0 z M 783,864 l 27,0 0,27 -27,0 z M 810,864 l 27,0 0,27 -27,0 z M 837,864 l 27,0 0,27 -27,0 z M 864,864 l 27,0 0,27 -27,0 z M 891,864 l 27,0 0,27 -27,0 z M 918,864 l 27,0 0,27 -27,0 z M 945,864 l 27,0 0,27 -27,0 z M 972,864 l 27,0 0,27 -27,0 z M 999,864 l 27,0 0,27 -27,0 z M 1026,864 l 27,0 0,27 -27,0 z M 1053,864 l 27,0 0,27 -27,0 z M 1080,864 l 27,0 0,27 -27,0 z M 324,891 l 27,0 0,27 -27,0 z M 378,891 l 27,0 0,27 -27,0 z M 405,891 l 27,0 0,27 -27,0 z M 486,891 l 27,0 0,27 -27,0 z M 513,891 l 27,0 0,27 -27,0 z M 621,891 l 27,0 0,27 -27,0 z M 729,891 l 27,0 0,27 -27,0 z M 837,891 l 27,0 0,27 -27,0 z M 864,891 l 27,0 0,27 -27,0 z M 972,891 l 27,0 0,27 -27,0 z M 1053,891 l 27,0 0,27 -27,0 z M 108,918 l 27,0 0,27 -27,0 z M 135,918 l 27,0 0,27 -27,0 z M 162,918 l 27,0 0,27 -27,0 z M 189,918 l 27,0 0,27 -27,0 z M 216,918 l 27,0 0,27 -27,0 z M 243,918 l 27,0 0,27 -27,0 z M 270,918 l 27,0 0,27 -27,0 z M 351,918 l 27,0 0,27 -27,0 z M 378,918 l 27,0 0,27 -27,0 z M 432,918 l 27,0 0,27 -27,0 z M 459,918 l 27,0 0,27 -27,0 z M 486,918 l 27,0 0,27 -27,0 z M 540,918 l 27,0 0,27 -27,0 z M 567,918 l 27,0 0,27 -27,0 z M 594,918 l 27,0 0,27 -27,0 z M 621,918 l 27,0 0,27 -27,0 z M 756,918 l 27,0 0,27 -27,0 z M 783,918 l 27,0 0,27 -27,0 z M 810,918 l 27,0 0,27 -27,0 z M 864,918 l 27,0 0,27 -27,0 z M 918,918 l 27,0 0,27 -27,0 z M 972,918 l 27,0 0,27 -27,0 z M 999,918 l 27,0 0,27 -27,0 z M 1053,918 l 27,0 0,27 -27,0 z M 1080,918 l 27,0 0,27 -27,0 z M 108,945 l 27,0 0,27 -27,0 z M 270,945 l 27,0 0,27 -27,0 z M 351,945 l 27,0 0,27 -27,0 z M 378,945 l 27,0 0,27 -27,0 z M 405,945 l 27,0 0,27 -27,0 z M 540,945 l 27,0 0,27 -27,0 z M 594,945 l 27,0 0,27 -27,0 z M 621,945 l 27,0 0,27 -27,0 z M 675,945 l 27,0 0,27 -27,0 z M 810,945 l 27,0 0,27 -27,0 z M 837,945 l 27,0 0,27 -27,0 z M 864,945 l 27,0 0,27 -27,0 z M 972,945 l 27,0 0,27 -27,0 z M 1053,945 l 27,0 0,27 -27,0 z M 1080,945 l 27,0 0,27 -27,0 z M 108,972 l 27,0 0,27 -27,0 z M 162,972 l 27,0 0,27 -27,0 z M 189,972 l 27,0 0,27 -27,0 z M 216,972 l 27,0 0,27 -27,0 z M 270,972 l 27,0 0,27 -27,0 z M 324,972 l 27,0 0,27 -27,0 z M 351,972 l 27,0 0,27 -27,0 z M 378,972 l 27,0 0,27 -27,0 z M 405,972 l 27,0 0,27 -27,0 z M 432,972 l 27,0 0,27 -27,0 z M 486,972 l 27,0 0,27 -27,0 z M 729,972 l 27,0 0,27 -27,0 z M 783,972 l 27,0 0,27 -27,0 z M 810,972 l 27,0 0,27 -27,0 z M 837,972 l 27,0 0,27 -27,0 z M 864,972 l 27,0 0,27 -27,0 z M 891,972 l 27,0 0,27 -27,0 z M 918,972 l 27,0 0,27 -27,0 z M 945,972 l 27,0 0,27 -27,0 z M 972,972 l 27,0 0,27 -27,0 z M 1026,972 l 27,0 0,27 -27,0 z M 108,999 l 27,0 0,27 -27,0 z M 162,999 l 27,0 0,27 -27,0 z M 189,999 l 27,0 0,27 -27,0 z M 216,999 l 27,0 0,27 -27,0 z M 270,999 l 27,0 0,27 -27,0 z M 324,999 l 27,0 0,27 -27,0 z M 351,999 l 27,0 0,27 -27,0 z M 459,999 l 27,0 0,27 -27,0 z M 540,999 l 27,0 0,27 -27,0 z M 594,999 l 27,0 0,27 -27,0 z M 702,999 l 27,0 0,27 -27,0 z M 756,999 l 27,0 0,27 -27,0 z M 918,999 l 27,0 0,27 -27,0 z M 972,999 l 27,0 0,27 -27,0 z M 1026,999 l 27,0 0,27 -27,0 z M 108,1026 l 27,0 0,27 -27,0 z M 162,1026 l 27,0 0,27 -27,0 z M 189,1026 l 27,0 0,27 -27,0 z M 216,1026 l 27,0 0,27 -27,0 z M 270,1026 l 27,0 0,27 -27,0 z M 324,1026 l 27,0 0,27 -27,0 z M 459,1026 l 27,0 0,27 -27,0 z M 513,1026 l 27,0 0,27 -27,0 z M 540,1026 l 27,0 0,27 -27,0 z M 621,1026 l 27,0 0,27 -27,0 z M 648,1026 l 27,0 0,27 -27,0 z M 702,1026 l 27,0 0,27 -27,0 z M 810,1026 l 27,0 0,27 -27,0 z M 891,1026 l 27,0 0,27 -27,0 z M 945,1026 l 27,0 0,27 -27,0 z M 1026,1026 l 27,0 0,27 -27,0 z M 1080,1026 l 27,0 0,27 -27,0 z M 108,1053 l 27,0 0,27 -27,0 z M 270,1053 l 27,0 0,27 -27,0 z M 351,1053 l 27,0 0,27 -27,0 z M 405,1053 l 27,0 0,27 -27,0 z M 459,1053 l 27,0 0,27 -27,0 z M 486,1053 l 27,0 0,27 -27,0 z M 621,1053 l 27,0 0,27 -27,0 z M 756,1053 l 27,0 0,27 -27,0 z M 837,1053 l 27,0 0,27 -27,0 z M 864,1053 l 27,0 0,27 -27,0 z M 945,1053 l 27,0 0,27 -27,0 z M 1080,1053 l 27,0 0,27 -27,0 z M 108,1080 l 27,0 0,27 -27,0 z M 135,1080 l 27,0 0,27 -27,0 z M 162,1080 l 27,0 0,27 -27,0 z M 189,1080 l 27,0 0,27 -27,0 z M 216,1080 l 27,0 0,27 -27,0 z M 243,1080 l 27,0 0,27 -27,0 z M 270,1080 l 27,0 0,27 -27,0 z M 351,1080 l 27,0 0,27 -27,0 z M 378,1080 l 27,0 0,27 -27,0 z M 459,1080 l 27,0 0,27 -27,0 z M 513,1080 l 27,0 0,27 -27,0 z M 540,1080 l 27,0 0,27 -27,0 z M 648,1080 l 27,0 0,27 -27,0 z M 756,1080 l 27,0 0,27 -27,0 z M 783,1080 l 27,0 0,27 -27,0 z M 810,1080 l 27,0 0,27 -27,0 z M 891,1080 l 27,0 0,27 -27,0 z M 918,1080 l 27,0 0,27 -27,0 z M 999,1080 l 27,0 0,27 -27,0 z M 1026,1080 l 27,0 0,27 -27,0 z M 1053,1080 l 27,0 0,27 -27,0 z M 1080,1080 l 27,0 0,27 -27,0 z " />
	</g>
</svg>
